<?xml version="1.0" encoding="utf-8" standalone="no"?>
<!DOCTYPE svg PUBLIC "-//W3C//DTD SVG 1.1//EN"
  "http://www.w3.org/Graphics/SVG/1.1/DTD/svg11.dtd">
<svg xmlns:xlink="http://www.w3.org/1999/xlink" width="720pt" height="432pt" viewBox="0 0 720 432" xmlns="http://www.w3.org/2000/svg" version="1.1">
 <metadata>
  <rdf:RDF xmlns:dc="http://purl.org/dc/elements/1.1/" xmlns:cc="http://creativecommons.org/ns#" xmlns:rdf="http://www.w3.org/1999/02/22-rdf-syntax-ns#">
   <cc:Work>
    <dc:type rdf:resource="http://purl.org/dc/dcmitype/StillImage"/>
    <dc:date>2025-02-26T12:53:05.842091</dc:date>
    <dc:format>image/svg+xml</dc:format>
    <dc:creator>
     <cc:Agent>
      <dc:title>Matplotlib v3.7.2, https://matplotlib.org/</dc:title>
     </cc:Agent>
    </dc:creator>
   </cc:Work>
  </rdf:RDF>
 </metadata>
 <defs>
  <style type="text/css">*{stroke-linejoin: round; stroke-linecap: butt}</style>
 </defs>
 <g id="figure_1">
  <g id="patch_1">
   <path d="M 0 432 
L 720 432 
L 720 0 
L 0 0 
z
" style="fill: #ffffff"/>
  </g>
  <g id="axes_1">
   <g id="patch_2">
    <path d="M 47.52 390.096 
L 547.2 390.096 
L 547.2 25.488 
L 47.52 25.488 
z
" style="fill: #ffffff"/>
   </g>
   <g id="matplotlib.axis_1">
    <g id="xtick_1">
     <g id="line2d_1">
      <defs>
       <path id="mc81a2d0acc" d="M 0 0 
L 0 3.5 
" style="stroke: #000000; stroke-width: 0.8"/>
      </defs>
      <g>
       <use xlink:href="#mc81a2d0acc" x="65.128744" y="390.096" style="stroke: #000000; stroke-width: 0.8"/>
      </g>
     </g>
     <g id="text_1">
      <!-- 0 -->
      <g transform="translate(61.947494 404.694437) scale(0.1 -0.1)">
       <defs>
        <path id="DejaVuSans-30" d="M 2034 4250 
Q 1547 4250 1301 3770 
Q 1056 3291 1056 2328 
Q 1056 1369 1301 889 
Q 1547 409 2034 409 
Q 2525 409 2770 889 
Q 3016 1369 3016 2328 
Q 3016 3291 2770 3770 
Q 2525 4250 2034 4250 
z
M 2034 4750 
Q 2819 4750 3233 4129 
Q 3647 3509 3647 2328 
Q 3647 1150 3233 529 
Q 2819 -91 2034 -91 
Q 1250 -91 836 529 
Q 422 1150 422 2328 
Q 422 3509 836 4129 
Q 1250 4750 2034 4750 
z
" transform="scale(0.015625)"/>
       </defs>
       <use xlink:href="#DejaVuSans-30"/>
      </g>
     </g>
    </g>
    <g id="xtick_2">
     <g id="line2d_2">
      <g>
       <use xlink:href="#mc81a2d0acc" x="167.208417" y="390.096" style="stroke: #000000; stroke-width: 0.8"/>
      </g>
     </g>
     <g id="text_2">
      <!-- 1000 -->
      <g transform="translate(154.483417 404.694437) scale(0.1 -0.1)">
       <defs>
        <path id="DejaVuSans-31" d="M 794 531 
L 1825 531 
L 1825 4091 
L 703 3866 
L 703 4441 
L 1819 4666 
L 2450 4666 
L 2450 531 
L 3481 531 
L 3481 0 
L 794 0 
L 794 531 
z
" transform="scale(0.015625)"/>
       </defs>
       <use xlink:href="#DejaVuSans-31"/>
       <use xlink:href="#DejaVuSans-30" x="63.623047"/>
       <use xlink:href="#DejaVuSans-30" x="127.246094"/>
       <use xlink:href="#DejaVuSans-30" x="190.869141"/>
      </g>
     </g>
    </g>
    <g id="xtick_3">
     <g id="line2d_3">
      <g>
       <use xlink:href="#mc81a2d0acc" x="269.28809" y="390.096" style="stroke: #000000; stroke-width: 0.8"/>
      </g>
     </g>
     <g id="text_3">
      <!-- 2000 -->
      <g transform="translate(256.56309 404.694437) scale(0.1 -0.1)">
       <defs>
        <path id="DejaVuSans-32" d="M 1228 531 
L 3431 531 
L 3431 0 
L 469 0 
L 469 531 
Q 828 903 1448 1529 
Q 2069 2156 2228 2338 
Q 2531 2678 2651 2914 
Q 2772 3150 2772 3378 
Q 2772 3750 2511 3984 
Q 2250 4219 1831 4219 
Q 1534 4219 1204 4116 
Q 875 4013 500 3803 
L 500 4441 
Q 881 4594 1212 4672 
Q 1544 4750 1819 4750 
Q 2544 4750 2975 4387 
Q 3406 4025 3406 3419 
Q 3406 3131 3298 2873 
Q 3191 2616 2906 2266 
Q 2828 2175 2409 1742 
Q 1991 1309 1228 531 
z
" transform="scale(0.015625)"/>
       </defs>
       <use xlink:href="#DejaVuSans-32"/>
       <use xlink:href="#DejaVuSans-30" x="63.623047"/>
       <use xlink:href="#DejaVuSans-30" x="127.246094"/>
       <use xlink:href="#DejaVuSans-30" x="190.869141"/>
      </g>
     </g>
    </g>
    <g id="xtick_4">
     <g id="line2d_4">
      <g>
       <use xlink:href="#mc81a2d0acc" x="371.367763" y="390.096" style="stroke: #000000; stroke-width: 0.8"/>
      </g>
     </g>
     <g id="text_4">
      <!-- 3000 -->
      <g transform="translate(358.642763 404.694437) scale(0.1 -0.1)">
       <defs>
        <path id="DejaVuSans-33" d="M 2597 2516 
Q 3050 2419 3304 2112 
Q 3559 1806 3559 1356 
Q 3559 666 3084 287 
Q 2609 -91 1734 -91 
Q 1441 -91 1130 -33 
Q 819 25 488 141 
L 488 750 
Q 750 597 1062 519 
Q 1375 441 1716 441 
Q 2309 441 2620 675 
Q 2931 909 2931 1356 
Q 2931 1769 2642 2001 
Q 2353 2234 1838 2234 
L 1294 2234 
L 1294 2753 
L 1863 2753 
Q 2328 2753 2575 2939 
Q 2822 3125 2822 3475 
Q 2822 3834 2567 4026 
Q 2313 4219 1838 4219 
Q 1578 4219 1281 4162 
Q 984 4106 628 3988 
L 628 4550 
Q 988 4650 1302 4700 
Q 1616 4750 1894 4750 
Q 2613 4750 3031 4423 
Q 3450 4097 3450 3541 
Q 3450 3153 3228 2886 
Q 3006 2619 2597 2516 
z
" transform="scale(0.015625)"/>
       </defs>
       <use xlink:href="#DejaVuSans-33"/>
       <use xlink:href="#DejaVuSans-30" x="63.623047"/>
       <use xlink:href="#DejaVuSans-30" x="127.246094"/>
       <use xlink:href="#DejaVuSans-30" x="190.869141"/>
      </g>
     </g>
    </g>
    <g id="xtick_5">
     <g id="line2d_5">
      <g>
       <use xlink:href="#mc81a2d0acc" x="473.447436" y="390.096" style="stroke: #000000; stroke-width: 0.8"/>
      </g>
     </g>
     <g id="text_5">
      <!-- 4000 -->
      <g transform="translate(460.722436 404.694437) scale(0.1 -0.1)">
       <defs>
        <path id="DejaVuSans-34" d="M 2419 4116 
L 825 1625 
L 2419 1625 
L 2419 4116 
z
M 2253 4666 
L 3047 4666 
L 3047 1625 
L 3713 1625 
L 3713 1100 
L 3047 1100 
L 3047 0 
L 2419 0 
L 2419 1100 
L 313 1100 
L 313 1709 
L 2253 4666 
z
" transform="scale(0.015625)"/>
       </defs>
       <use xlink:href="#DejaVuSans-34"/>
       <use xlink:href="#DejaVuSans-30" x="63.623047"/>
       <use xlink:href="#DejaVuSans-30" x="127.246094"/>
       <use xlink:href="#DejaVuSans-30" x="190.869141"/>
      </g>
     </g>
    </g>
    <g id="text_6">
     <!-- Sample size (m) -->
     <g transform="translate(256.967031 418.372563) scale(0.1 -0.1)">
      <defs>
       <path id="DejaVuSans-53" d="M 3425 4513 
L 3425 3897 
Q 3066 4069 2747 4153 
Q 2428 4238 2131 4238 
Q 1616 4238 1336 4038 
Q 1056 3838 1056 3469 
Q 1056 3159 1242 3001 
Q 1428 2844 1947 2747 
L 2328 2669 
Q 3034 2534 3370 2195 
Q 3706 1856 3706 1288 
Q 3706 609 3251 259 
Q 2797 -91 1919 -91 
Q 1588 -91 1214 -16 
Q 841 59 441 206 
L 441 856 
Q 825 641 1194 531 
Q 1563 422 1919 422 
Q 2459 422 2753 634 
Q 3047 847 3047 1241 
Q 3047 1584 2836 1778 
Q 2625 1972 2144 2069 
L 1759 2144 
Q 1053 2284 737 2584 
Q 422 2884 422 3419 
Q 422 4038 858 4394 
Q 1294 4750 2059 4750 
Q 2388 4750 2728 4690 
Q 3069 4631 3425 4513 
z
" transform="scale(0.015625)"/>
       <path id="DejaVuSans-61" d="M 2194 1759 
Q 1497 1759 1228 1600 
Q 959 1441 959 1056 
Q 959 750 1161 570 
Q 1363 391 1709 391 
Q 2188 391 2477 730 
Q 2766 1069 2766 1631 
L 2766 1759 
L 2194 1759 
z
M 3341 1997 
L 3341 0 
L 2766 0 
L 2766 531 
Q 2569 213 2275 61 
Q 1981 -91 1556 -91 
Q 1019 -91 701 211 
Q 384 513 384 1019 
Q 384 1609 779 1909 
Q 1175 2209 1959 2209 
L 2766 2209 
L 2766 2266 
Q 2766 2663 2505 2880 
Q 2244 3097 1772 3097 
Q 1472 3097 1187 3025 
Q 903 2953 641 2809 
L 641 3341 
Q 956 3463 1253 3523 
Q 1550 3584 1831 3584 
Q 2591 3584 2966 3190 
Q 3341 2797 3341 1997 
z
" transform="scale(0.015625)"/>
       <path id="DejaVuSans-6d" d="M 3328 2828 
Q 3544 3216 3844 3400 
Q 4144 3584 4550 3584 
Q 5097 3584 5394 3201 
Q 5691 2819 5691 2113 
L 5691 0 
L 5113 0 
L 5113 2094 
Q 5113 2597 4934 2840 
Q 4756 3084 4391 3084 
Q 3944 3084 3684 2787 
Q 3425 2491 3425 1978 
L 3425 0 
L 2847 0 
L 2847 2094 
Q 2847 2600 2669 2842 
Q 2491 3084 2119 3084 
Q 1678 3084 1418 2786 
Q 1159 2488 1159 1978 
L 1159 0 
L 581 0 
L 581 3500 
L 1159 3500 
L 1159 2956 
Q 1356 3278 1631 3431 
Q 1906 3584 2284 3584 
Q 2666 3584 2933 3390 
Q 3200 3197 3328 2828 
z
" transform="scale(0.015625)"/>
       <path id="DejaVuSans-70" d="M 1159 525 
L 1159 -1331 
L 581 -1331 
L 581 3500 
L 1159 3500 
L 1159 2969 
Q 1341 3281 1617 3432 
Q 1894 3584 2278 3584 
Q 2916 3584 3314 3078 
Q 3713 2572 3713 1747 
Q 3713 922 3314 415 
Q 2916 -91 2278 -91 
Q 1894 -91 1617 61 
Q 1341 213 1159 525 
z
M 3116 1747 
Q 3116 2381 2855 2742 
Q 2594 3103 2138 3103 
Q 1681 3103 1420 2742 
Q 1159 2381 1159 1747 
Q 1159 1113 1420 752 
Q 1681 391 2138 391 
Q 2594 391 2855 752 
Q 3116 1113 3116 1747 
z
" transform="scale(0.015625)"/>
       <path id="DejaVuSans-6c" d="M 603 4863 
L 1178 4863 
L 1178 0 
L 603 0 
L 603 4863 
z
" transform="scale(0.015625)"/>
       <path id="DejaVuSans-65" d="M 3597 1894 
L 3597 1613 
L 953 1613 
Q 991 1019 1311 708 
Q 1631 397 2203 397 
Q 2534 397 2845 478 
Q 3156 559 3463 722 
L 3463 178 
Q 3153 47 2828 -22 
Q 2503 -91 2169 -91 
Q 1331 -91 842 396 
Q 353 884 353 1716 
Q 353 2575 817 3079 
Q 1281 3584 2069 3584 
Q 2775 3584 3186 3129 
Q 3597 2675 3597 1894 
z
M 3022 2063 
Q 3016 2534 2758 2815 
Q 2500 3097 2075 3097 
Q 1594 3097 1305 2825 
Q 1016 2553 972 2059 
L 3022 2063 
z
" transform="scale(0.015625)"/>
       <path id="DejaVuSans-20" transform="scale(0.015625)"/>
       <path id="DejaVuSans-73" d="M 2834 3397 
L 2834 2853 
Q 2591 2978 2328 3040 
Q 2066 3103 1784 3103 
Q 1356 3103 1142 2972 
Q 928 2841 928 2578 
Q 928 2378 1081 2264 
Q 1234 2150 1697 2047 
L 1894 2003 
Q 2506 1872 2764 1633 
Q 3022 1394 3022 966 
Q 3022 478 2636 193 
Q 2250 -91 1575 -91 
Q 1294 -91 989 -36 
Q 684 19 347 128 
L 347 722 
Q 666 556 975 473 
Q 1284 391 1588 391 
Q 1994 391 2212 530 
Q 2431 669 2431 922 
Q 2431 1156 2273 1281 
Q 2116 1406 1581 1522 
L 1381 1569 
Q 847 1681 609 1914 
Q 372 2147 372 2553 
Q 372 3047 722 3315 
Q 1072 3584 1716 3584 
Q 2034 3584 2315 3537 
Q 2597 3491 2834 3397 
z
" transform="scale(0.015625)"/>
       <path id="DejaVuSans-69" d="M 603 3500 
L 1178 3500 
L 1178 0 
L 603 0 
L 603 3500 
z
M 603 4863 
L 1178 4863 
L 1178 4134 
L 603 4134 
L 603 4863 
z
" transform="scale(0.015625)"/>
       <path id="DejaVuSans-7a" d="M 353 3500 
L 3084 3500 
L 3084 2975 
L 922 459 
L 3084 459 
L 3084 0 
L 275 0 
L 275 525 
L 2438 3041 
L 353 3041 
L 353 3500 
z
" transform="scale(0.015625)"/>
       <path id="DejaVuSans-28" d="M 1984 4856 
Q 1566 4138 1362 3434 
Q 1159 2731 1159 2009 
Q 1159 1288 1364 580 
Q 1569 -128 1984 -844 
L 1484 -844 
Q 1016 -109 783 600 
Q 550 1309 550 2009 
Q 550 2706 781 3412 
Q 1013 4119 1484 4856 
L 1984 4856 
z
" transform="scale(0.015625)"/>
       <path id="DejaVuSans-29" d="M 513 4856 
L 1013 4856 
Q 1481 4119 1714 3412 
Q 1947 2706 1947 2009 
Q 1947 1309 1714 600 
Q 1481 -109 1013 -844 
L 513 -844 
Q 928 -128 1133 580 
Q 1338 1288 1338 2009 
Q 1338 2731 1133 3434 
Q 928 4138 513 4856 
z
" transform="scale(0.015625)"/>
      </defs>
      <use xlink:href="#DejaVuSans-53"/>
      <use xlink:href="#DejaVuSans-61" x="63.476562"/>
      <use xlink:href="#DejaVuSans-6d" x="124.755859"/>
      <use xlink:href="#DejaVuSans-70" x="222.167969"/>
      <use xlink:href="#DejaVuSans-6c" x="285.644531"/>
      <use xlink:href="#DejaVuSans-65" x="313.427734"/>
      <use xlink:href="#DejaVuSans-20" x="374.951172"/>
      <use xlink:href="#DejaVuSans-73" x="406.738281"/>
      <use xlink:href="#DejaVuSans-69" x="458.837891"/>
      <use xlink:href="#DejaVuSans-7a" x="486.621094"/>
      <use xlink:href="#DejaVuSans-65" x="539.111328"/>
      <use xlink:href="#DejaVuSans-20" x="600.634766"/>
      <use xlink:href="#DejaVuSans-28" x="632.421875"/>
      <use xlink:href="#DejaVuSans-6d" x="671.435547"/>
      <use xlink:href="#DejaVuSans-29" x="768.847656"/>
     </g>
    </g>
   </g>
   <g id="matplotlib.axis_2">
    <g id="ytick_1">
     <g id="line2d_6">
      <defs>
       <path id="m5272b8e8e6" d="M 0 0 
L -3.5 0 
" style="stroke: #000000; stroke-width: 0.8"/>
      </defs>
      <g>
       <use xlink:href="#m5272b8e8e6" x="47.52" y="373.522909" style="stroke: #000000; stroke-width: 0.8"/>
      </g>
     </g>
     <g id="text_7">
      <!-- 0.0 -->
      <g transform="translate(24.616875 377.322128) scale(0.1 -0.1)">
       <defs>
        <path id="DejaVuSans-2e" d="M 684 794 
L 1344 794 
L 1344 0 
L 684 0 
L 684 794 
z
" transform="scale(0.015625)"/>
       </defs>
       <use xlink:href="#DejaVuSans-30"/>
       <use xlink:href="#DejaVuSans-2e" x="63.623047"/>
       <use xlink:href="#DejaVuSans-30" x="95.410156"/>
      </g>
     </g>
    </g>
    <g id="ytick_2">
     <g id="line2d_7">
      <g>
       <use xlink:href="#m5272b8e8e6" x="47.52" y="307.230545" style="stroke: #000000; stroke-width: 0.8"/>
      </g>
     </g>
     <g id="text_8">
      <!-- 0.2 -->
      <g transform="translate(24.616875 311.029764) scale(0.1 -0.1)">
       <use xlink:href="#DejaVuSans-30"/>
       <use xlink:href="#DejaVuSans-2e" x="63.623047"/>
       <use xlink:href="#DejaVuSans-32" x="95.410156"/>
      </g>
     </g>
    </g>
    <g id="ytick_3">
     <g id="line2d_8">
      <g>
       <use xlink:href="#m5272b8e8e6" x="47.52" y="240.938182" style="stroke: #000000; stroke-width: 0.8"/>
      </g>
     </g>
     <g id="text_9">
      <!-- 0.4 -->
      <g transform="translate(24.616875 244.737401) scale(0.1 -0.1)">
       <use xlink:href="#DejaVuSans-30"/>
       <use xlink:href="#DejaVuSans-2e" x="63.623047"/>
       <use xlink:href="#DejaVuSans-34" x="95.410156"/>
      </g>
     </g>
    </g>
    <g id="ytick_4">
     <g id="line2d_9">
      <g>
       <use xlink:href="#m5272b8e8e6" x="47.52" y="174.645818" style="stroke: #000000; stroke-width: 0.8"/>
      </g>
     </g>
     <g id="text_10">
      <!-- 0.6 -->
      <g transform="translate(24.616875 178.445037) scale(0.1 -0.1)">
       <defs>
        <path id="DejaVuSans-36" d="M 2113 2584 
Q 1688 2584 1439 2293 
Q 1191 2003 1191 1497 
Q 1191 994 1439 701 
Q 1688 409 2113 409 
Q 2538 409 2786 701 
Q 3034 994 3034 1497 
Q 3034 2003 2786 2293 
Q 2538 2584 2113 2584 
z
M 3366 4563 
L 3366 3988 
Q 3128 4100 2886 4159 
Q 2644 4219 2406 4219 
Q 1781 4219 1451 3797 
Q 1122 3375 1075 2522 
Q 1259 2794 1537 2939 
Q 1816 3084 2150 3084 
Q 2853 3084 3261 2657 
Q 3669 2231 3669 1497 
Q 3669 778 3244 343 
Q 2819 -91 2113 -91 
Q 1303 -91 875 529 
Q 447 1150 447 2328 
Q 447 3434 972 4092 
Q 1497 4750 2381 4750 
Q 2619 4750 2861 4703 
Q 3103 4656 3366 4563 
z
" transform="scale(0.015625)"/>
       </defs>
       <use xlink:href="#DejaVuSans-30"/>
       <use xlink:href="#DejaVuSans-2e" x="63.623047"/>
       <use xlink:href="#DejaVuSans-36" x="95.410156"/>
      </g>
     </g>
    </g>
    <g id="ytick_5">
     <g id="line2d_10">
      <g>
       <use xlink:href="#m5272b8e8e6" x="47.52" y="108.353455" style="stroke: #000000; stroke-width: 0.8"/>
      </g>
     </g>
     <g id="text_11">
      <!-- 0.8 -->
      <g transform="translate(24.616875 112.152673) scale(0.1 -0.1)">
       <defs>
        <path id="DejaVuSans-38" d="M 2034 2216 
Q 1584 2216 1326 1975 
Q 1069 1734 1069 1313 
Q 1069 891 1326 650 
Q 1584 409 2034 409 
Q 2484 409 2743 651 
Q 3003 894 3003 1313 
Q 3003 1734 2745 1975 
Q 2488 2216 2034 2216 
z
M 1403 2484 
Q 997 2584 770 2862 
Q 544 3141 544 3541 
Q 544 4100 942 4425 
Q 1341 4750 2034 4750 
Q 2731 4750 3128 4425 
Q 3525 4100 3525 3541 
Q 3525 3141 3298 2862 
Q 3072 2584 2669 2484 
Q 3125 2378 3379 2068 
Q 3634 1759 3634 1313 
Q 3634 634 3220 271 
Q 2806 -91 2034 -91 
Q 1263 -91 848 271 
Q 434 634 434 1313 
Q 434 1759 690 2068 
Q 947 2378 1403 2484 
z
M 1172 3481 
Q 1172 3119 1398 2916 
Q 1625 2713 2034 2713 
Q 2441 2713 2670 2916 
Q 2900 3119 2900 3481 
Q 2900 3844 2670 4047 
Q 2441 4250 2034 4250 
Q 1625 4250 1398 4047 
Q 1172 3844 1172 3481 
z
" transform="scale(0.015625)"/>
       </defs>
       <use xlink:href="#DejaVuSans-30"/>
       <use xlink:href="#DejaVuSans-2e" x="63.623047"/>
       <use xlink:href="#DejaVuSans-38" x="95.410156"/>
      </g>
     </g>
    </g>
    <g id="ytick_6">
     <g id="line2d_11">
      <g>
       <use xlink:href="#m5272b8e8e6" x="47.52" y="42.061091" style="stroke: #000000; stroke-width: 0.8"/>
      </g>
     </g>
     <g id="text_12">
      <!-- 1.0 -->
      <g transform="translate(24.616875 45.86031) scale(0.1 -0.1)">
       <use xlink:href="#DejaVuSans-31"/>
       <use xlink:href="#DejaVuSans-2e" x="63.623047"/>
       <use xlink:href="#DejaVuSans-30" x="95.410156"/>
      </g>
     </g>
    </g>
    <g id="text_13">
     <!-- Normalized median feature value -->
     <g transform="translate(18.537187 291.364656) rotate(-90) scale(0.1 -0.1)">
      <defs>
       <path id="DejaVuSans-4e" d="M 628 4666 
L 1478 4666 
L 3547 763 
L 3547 4666 
L 4159 4666 
L 4159 0 
L 3309 0 
L 1241 3903 
L 1241 0 
L 628 0 
L 628 4666 
z
" transform="scale(0.015625)"/>
       <path id="DejaVuSans-6f" d="M 1959 3097 
Q 1497 3097 1228 2736 
Q 959 2375 959 1747 
Q 959 1119 1226 758 
Q 1494 397 1959 397 
Q 2419 397 2687 759 
Q 2956 1122 2956 1747 
Q 2956 2369 2687 2733 
Q 2419 3097 1959 3097 
z
M 1959 3584 
Q 2709 3584 3137 3096 
Q 3566 2609 3566 1747 
Q 3566 888 3137 398 
Q 2709 -91 1959 -91 
Q 1206 -91 779 398 
Q 353 888 353 1747 
Q 353 2609 779 3096 
Q 1206 3584 1959 3584 
z
" transform="scale(0.015625)"/>
       <path id="DejaVuSans-72" d="M 2631 2963 
Q 2534 3019 2420 3045 
Q 2306 3072 2169 3072 
Q 1681 3072 1420 2755 
Q 1159 2438 1159 1844 
L 1159 0 
L 581 0 
L 581 3500 
L 1159 3500 
L 1159 2956 
Q 1341 3275 1631 3429 
Q 1922 3584 2338 3584 
Q 2397 3584 2469 3576 
Q 2541 3569 2628 3553 
L 2631 2963 
z
" transform="scale(0.015625)"/>
       <path id="DejaVuSans-64" d="M 2906 2969 
L 2906 4863 
L 3481 4863 
L 3481 0 
L 2906 0 
L 2906 525 
Q 2725 213 2448 61 
Q 2172 -91 1784 -91 
Q 1150 -91 751 415 
Q 353 922 353 1747 
Q 353 2572 751 3078 
Q 1150 3584 1784 3584 
Q 2172 3584 2448 3432 
Q 2725 3281 2906 2969 
z
M 947 1747 
Q 947 1113 1208 752 
Q 1469 391 1925 391 
Q 2381 391 2643 752 
Q 2906 1113 2906 1747 
Q 2906 2381 2643 2742 
Q 2381 3103 1925 3103 
Q 1469 3103 1208 2742 
Q 947 2381 947 1747 
z
" transform="scale(0.015625)"/>
       <path id="DejaVuSans-6e" d="M 3513 2113 
L 3513 0 
L 2938 0 
L 2938 2094 
Q 2938 2591 2744 2837 
Q 2550 3084 2163 3084 
Q 1697 3084 1428 2787 
Q 1159 2491 1159 1978 
L 1159 0 
L 581 0 
L 581 3500 
L 1159 3500 
L 1159 2956 
Q 1366 3272 1645 3428 
Q 1925 3584 2291 3584 
Q 2894 3584 3203 3211 
Q 3513 2838 3513 2113 
z
" transform="scale(0.015625)"/>
       <path id="DejaVuSans-66" d="M 2375 4863 
L 2375 4384 
L 1825 4384 
Q 1516 4384 1395 4259 
Q 1275 4134 1275 3809 
L 1275 3500 
L 2222 3500 
L 2222 3053 
L 1275 3053 
L 1275 0 
L 697 0 
L 697 3053 
L 147 3053 
L 147 3500 
L 697 3500 
L 697 3744 
Q 697 4328 969 4595 
Q 1241 4863 1831 4863 
L 2375 4863 
z
" transform="scale(0.015625)"/>
       <path id="DejaVuSans-74" d="M 1172 4494 
L 1172 3500 
L 2356 3500 
L 2356 3053 
L 1172 3053 
L 1172 1153 
Q 1172 725 1289 603 
Q 1406 481 1766 481 
L 2356 481 
L 2356 0 
L 1766 0 
Q 1100 0 847 248 
Q 594 497 594 1153 
L 594 3053 
L 172 3053 
L 172 3500 
L 594 3500 
L 594 4494 
L 1172 4494 
z
" transform="scale(0.015625)"/>
       <path id="DejaVuSans-75" d="M 544 1381 
L 544 3500 
L 1119 3500 
L 1119 1403 
Q 1119 906 1312 657 
Q 1506 409 1894 409 
Q 2359 409 2629 706 
Q 2900 1003 2900 1516 
L 2900 3500 
L 3475 3500 
L 3475 0 
L 2900 0 
L 2900 538 
Q 2691 219 2414 64 
Q 2138 -91 1772 -91 
Q 1169 -91 856 284 
Q 544 659 544 1381 
z
M 1991 3584 
L 1991 3584 
z
" transform="scale(0.015625)"/>
       <path id="DejaVuSans-76" d="M 191 3500 
L 800 3500 
L 1894 563 
L 2988 3500 
L 3597 3500 
L 2284 0 
L 1503 0 
L 191 3500 
z
" transform="scale(0.015625)"/>
      </defs>
      <use xlink:href="#DejaVuSans-4e"/>
      <use xlink:href="#DejaVuSans-6f" x="74.804688"/>
      <use xlink:href="#DejaVuSans-72" x="135.986328"/>
      <use xlink:href="#DejaVuSans-6d" x="175.349609"/>
      <use xlink:href="#DejaVuSans-61" x="272.761719"/>
      <use xlink:href="#DejaVuSans-6c" x="334.041016"/>
      <use xlink:href="#DejaVuSans-69" x="361.824219"/>
      <use xlink:href="#DejaVuSans-7a" x="389.607422"/>
      <use xlink:href="#DejaVuSans-65" x="442.097656"/>
      <use xlink:href="#DejaVuSans-64" x="503.621094"/>
      <use xlink:href="#DejaVuSans-20" x="567.097656"/>
      <use xlink:href="#DejaVuSans-6d" x="598.884766"/>
      <use xlink:href="#DejaVuSans-65" x="696.296875"/>
      <use xlink:href="#DejaVuSans-64" x="757.820312"/>
      <use xlink:href="#DejaVuSans-69" x="821.296875"/>
      <use xlink:href="#DejaVuSans-61" x="849.080078"/>
      <use xlink:href="#DejaVuSans-6e" x="910.359375"/>
      <use xlink:href="#DejaVuSans-20" x="973.738281"/>
      <use xlink:href="#DejaVuSans-66" x="1005.525391"/>
      <use xlink:href="#DejaVuSans-65" x="1040.730469"/>
      <use xlink:href="#DejaVuSans-61" x="1102.253906"/>
      <use xlink:href="#DejaVuSans-74" x="1163.533203"/>
      <use xlink:href="#DejaVuSans-75" x="1202.742188"/>
      <use xlink:href="#DejaVuSans-72" x="1266.121094"/>
      <use xlink:href="#DejaVuSans-65" x="1304.984375"/>
      <use xlink:href="#DejaVuSans-20" x="1366.507812"/>
      <use xlink:href="#DejaVuSans-76" x="1398.294922"/>
      <use xlink:href="#DejaVuSans-61" x="1457.474609"/>
      <use xlink:href="#DejaVuSans-6c" x="1518.753906"/>
      <use xlink:href="#DejaVuSans-75" x="1546.537109"/>
      <use xlink:href="#DejaVuSans-65" x="1609.916016"/>
     </g>
    </g>
   </g>
   <g id="line2d_12">
    <path d="M 70.232727 373.522909 
L 85.544678 270.921776 
L 116.16858 204.337838 
L 167.208417 153.074567 
L 218.248253 123.155173 
L 320.327926 85.541139 
L 422.4076 60.592213 
L 524.487273 42.061091 
" clip-path="url(#p519a904646)" style="fill: none; stroke: #1f77b4; stroke-width: 1.5; stroke-linecap: square"/>
    <defs>
     <path id="m603d447092" d="M 0 3 
C 0.795609 3 1.55874 2.683901 2.12132 2.12132 
C 2.683901 1.55874 3 0.795609 3 0 
C 3 -0.795609 2.683901 -1.55874 2.12132 -2.12132 
C 1.55874 -2.683901 0.795609 -3 0 -3 
C -0.795609 -3 -1.55874 -2.683901 -2.12132 -2.12132 
C -2.683901 -1.55874 -3 -0.795609 -3 0 
C -3 0.795609 -2.683901 1.55874 -2.12132 2.12132 
C -1.55874 2.683901 -0.795609 3 0 3 
z
" style="stroke: #1f77b4"/>
    </defs>
    <g clip-path="url(#p519a904646)">
     <use xlink:href="#m603d447092" x="70.232727" y="373.522909" style="fill: #1f77b4; stroke: #1f77b4"/>
     <use xlink:href="#m603d447092" x="85.544678" y="270.921776" style="fill: #1f77b4; stroke: #1f77b4"/>
     <use xlink:href="#m603d447092" x="116.16858" y="204.337838" style="fill: #1f77b4; stroke: #1f77b4"/>
     <use xlink:href="#m603d447092" x="167.208417" y="153.074567" style="fill: #1f77b4; stroke: #1f77b4"/>
     <use xlink:href="#m603d447092" x="218.248253" y="123.155173" style="fill: #1f77b4; stroke: #1f77b4"/>
     <use xlink:href="#m603d447092" x="320.327926" y="85.541139" style="fill: #1f77b4; stroke: #1f77b4"/>
     <use xlink:href="#m603d447092" x="422.4076" y="60.592213" style="fill: #1f77b4; stroke: #1f77b4"/>
     <use xlink:href="#m603d447092" x="524.487273" y="42.061091" style="fill: #1f77b4; stroke: #1f77b4"/>
    </g>
   </g>
   <g id="line2d_13">
    <path d="M 70.232727 373.522909 
L 85.544678 254.145222 
L 116.16858 190.973194 
L 167.208417 140.746381 
L 218.248253 114.961658 
L 320.327926 80.767996 
L 422.4076 57.828036 
L 524.487273 42.061091 
" clip-path="url(#p519a904646)" style="fill: none; stroke: #ff7f0e; stroke-width: 1.5; stroke-linecap: square"/>
    <defs>
     <path id="me6e830f0c3" d="M 0 3 
C 0.795609 3 1.55874 2.683901 2.12132 2.12132 
C 2.683901 1.55874 3 0.795609 3 0 
C 3 -0.795609 2.683901 -1.55874 2.12132 -2.12132 
C 1.55874 -2.683901 0.795609 -3 0 -3 
C -0.795609 -3 -1.55874 -2.683901 -2.12132 -2.12132 
C -2.683901 -1.55874 -3 -0.795609 -3 0 
C -3 0.795609 -2.683901 1.55874 -2.12132 2.12132 
C -1.55874 2.683901 -0.795609 3 0 3 
z
" style="stroke: #ff7f0e"/>
    </defs>
    <g clip-path="url(#p519a904646)">
     <use xlink:href="#me6e830f0c3" x="70.232727" y="373.522909" style="fill: #ff7f0e; stroke: #ff7f0e"/>
     <use xlink:href="#me6e830f0c3" x="85.544678" y="254.145222" style="fill: #ff7f0e; stroke: #ff7f0e"/>
     <use xlink:href="#me6e830f0c3" x="116.16858" y="190.973194" style="fill: #ff7f0e; stroke: #ff7f0e"/>
     <use xlink:href="#me6e830f0c3" x="167.208417" y="140.746381" style="fill: #ff7f0e; stroke: #ff7f0e"/>
     <use xlink:href="#me6e830f0c3" x="218.248253" y="114.961658" style="fill: #ff7f0e; stroke: #ff7f0e"/>
     <use xlink:href="#me6e830f0c3" x="320.327926" y="80.767996" style="fill: #ff7f0e; stroke: #ff7f0e"/>
     <use xlink:href="#me6e830f0c3" x="422.4076" y="57.828036" style="fill: #ff7f0e; stroke: #ff7f0e"/>
     <use xlink:href="#me6e830f0c3" x="524.487273" y="42.061091" style="fill: #ff7f0e; stroke: #ff7f0e"/>
    </g>
   </g>
   <g id="line2d_14">
    <path d="M 70.232727 373.522909 
L 85.544678 362.350039 
L 116.16858 340.004298 
L 167.208417 302.761397 
L 218.248253 265.518496 
L 320.327926 191.032695 
L 422.4076 116.546893 
L 524.487273 42.061091 
" clip-path="url(#p519a904646)" style="fill: none; stroke: #2ca02c; stroke-width: 1.5; stroke-linecap: square"/>
    <defs>
     <path id="m8327ee2b59" d="M 0 3 
C 0.795609 3 1.55874 2.683901 2.12132 2.12132 
C 2.683901 1.55874 3 0.795609 3 0 
C 3 -0.795609 2.683901 -1.55874 2.12132 -2.12132 
C 1.55874 -2.683901 0.795609 -3 0 -3 
C -0.795609 -3 -1.55874 -2.683901 -2.12132 -2.12132 
C -2.683901 -1.55874 -3 -0.795609 -3 0 
C -3 0.795609 -2.683901 1.55874 -2.12132 2.12132 
C -1.55874 2.683901 -0.795609 3 0 3 
z
" style="stroke: #2ca02c"/>
    </defs>
    <g clip-path="url(#p519a904646)">
     <use xlink:href="#m8327ee2b59" x="70.232727" y="373.522909" style="fill: #2ca02c; stroke: #2ca02c"/>
     <use xlink:href="#m8327ee2b59" x="85.544678" y="362.350039" style="fill: #2ca02c; stroke: #2ca02c"/>
     <use xlink:href="#m8327ee2b59" x="116.16858" y="340.004298" style="fill: #2ca02c; stroke: #2ca02c"/>
     <use xlink:href="#m8327ee2b59" x="167.208417" y="302.761397" style="fill: #2ca02c; stroke: #2ca02c"/>
     <use xlink:href="#m8327ee2b59" x="218.248253" y="265.518496" style="fill: #2ca02c; stroke: #2ca02c"/>
     <use xlink:href="#m8327ee2b59" x="320.327926" y="191.032695" style="fill: #2ca02c; stroke: #2ca02c"/>
     <use xlink:href="#m8327ee2b59" x="422.4076" y="116.546893" style="fill: #2ca02c; stroke: #2ca02c"/>
     <use xlink:href="#m8327ee2b59" x="524.487273" y="42.061091" style="fill: #2ca02c; stroke: #2ca02c"/>
    </g>
   </g>
   <g id="line2d_15">
    <path d="M 70.232727 373.522909 
L 85.544678 363.212621 
L 116.16858 342.870702 
L 167.208417 305.112757 
L 218.248253 269.166078 
L 320.327926 196.715407 
L 422.4076 116.044372 
L 524.487273 42.061091 
" clip-path="url(#p519a904646)" style="fill: none; stroke: #d62728; stroke-width: 1.5; stroke-linecap: square"/>
    <defs>
     <path id="m68e571b287" d="M 0 3 
C 0.795609 3 1.55874 2.683901 2.12132 2.12132 
C 2.683901 1.55874 3 0.795609 3 0 
C 3 -0.795609 2.683901 -1.55874 2.12132 -2.12132 
C 1.55874 -2.683901 0.795609 -3 0 -3 
C -0.795609 -3 -1.55874 -2.683901 -2.12132 -2.12132 
C -2.683901 -1.55874 -3 -0.795609 -3 0 
C -3 0.795609 -2.683901 1.55874 -2.12132 2.12132 
C -1.55874 2.683901 -0.795609 3 0 3 
z
" style="stroke: #d62728"/>
    </defs>
    <g clip-path="url(#p519a904646)">
     <use xlink:href="#m68e571b287" x="70.232727" y="373.522909" style="fill: #d62728; stroke: #d62728"/>
     <use xlink:href="#m68e571b287" x="85.544678" y="363.212621" style="fill: #d62728; stroke: #d62728"/>
     <use xlink:href="#m68e571b287" x="116.16858" y="342.870702" style="fill: #d62728; stroke: #d62728"/>
     <use xlink:href="#m68e571b287" x="167.208417" y="305.112757" style="fill: #d62728; stroke: #d62728"/>
     <use xlink:href="#m68e571b287" x="218.248253" y="269.166078" style="fill: #d62728; stroke: #d62728"/>
     <use xlink:href="#m68e571b287" x="320.327926" y="196.715407" style="fill: #d62728; stroke: #d62728"/>
     <use xlink:href="#m68e571b287" x="422.4076" y="116.044372" style="fill: #d62728; stroke: #d62728"/>
     <use xlink:href="#m68e571b287" x="524.487273" y="42.061091" style="fill: #d62728; stroke: #d62728"/>
    </g>
   </g>
   <g id="line2d_16">
    <path d="M 70.232727 373.522909 
L 85.544678 212.446766 
L 116.16858 135.884935 
L 167.208417 99.643397 
L 218.248253 81.831126 
L 320.327926 62.857117 
L 422.4076 54.872399 
L 524.487273 42.061091 
" clip-path="url(#p519a904646)" style="fill: none; stroke: #9467bd; stroke-width: 1.5; stroke-linecap: square"/>
    <defs>
     <path id="m05063644f8" d="M 0 3 
C 0.795609 3 1.55874 2.683901 2.12132 2.12132 
C 2.683901 1.55874 3 0.795609 3 0 
C 3 -0.795609 2.683901 -1.55874 2.12132 -2.12132 
C 1.55874 -2.683901 0.795609 -3 0 -3 
C -0.795609 -3 -1.55874 -2.683901 -2.12132 -2.12132 
C -2.683901 -1.55874 -3 -0.795609 -3 0 
C -3 0.795609 -2.683901 1.55874 -2.12132 2.12132 
C -1.55874 2.683901 -0.795609 3 0 3 
z
" style="stroke: #9467bd"/>
    </defs>
    <g clip-path="url(#p519a904646)">
     <use xlink:href="#m05063644f8" x="70.232727" y="373.522909" style="fill: #9467bd; stroke: #9467bd"/>
     <use xlink:href="#m05063644f8" x="85.544678" y="212.446766" style="fill: #9467bd; stroke: #9467bd"/>
     <use xlink:href="#m05063644f8" x="116.16858" y="135.884935" style="fill: #9467bd; stroke: #9467bd"/>
     <use xlink:href="#m05063644f8" x="167.208417" y="99.643397" style="fill: #9467bd; stroke: #9467bd"/>
     <use xlink:href="#m05063644f8" x="218.248253" y="81.831126" style="fill: #9467bd; stroke: #9467bd"/>
     <use xlink:href="#m05063644f8" x="320.327926" y="62.857117" style="fill: #9467bd; stroke: #9467bd"/>
     <use xlink:href="#m05063644f8" x="422.4076" y="54.872399" style="fill: #9467bd; stroke: #9467bd"/>
     <use xlink:href="#m05063644f8" x="524.487273" y="42.061091" style="fill: #9467bd; stroke: #9467bd"/>
    </g>
   </g>
   <g id="line2d_17">
    <path d="M 70.232727 373.522909 
L 85.544678 356.495818 
L 116.16858 271.924388 
L 167.208417 178.178477 
L 218.248253 152.669403 
L 320.327926 81.18153 
L 422.4076 56.221952 
L 524.487273 42.061091 
" clip-path="url(#p519a904646)" style="fill: none; stroke: #8c564b; stroke-width: 1.5; stroke-linecap: square"/>
    <defs>
     <path id="mbbe14c8128" d="M 0 3 
C 0.795609 3 1.55874 2.683901 2.12132 2.12132 
C 2.683901 1.55874 3 0.795609 3 0 
C 3 -0.795609 2.683901 -1.55874 2.12132 -2.12132 
C 1.55874 -2.683901 0.795609 -3 0 -3 
C -0.795609 -3 -1.55874 -2.683901 -2.12132 -2.12132 
C -2.683901 -1.55874 -3 -0.795609 -3 0 
C -3 0.795609 -2.683901 1.55874 -2.12132 2.12132 
C -1.55874 2.683901 -0.795609 3 0 3 
z
" style="stroke: #8c564b"/>
    </defs>
    <g clip-path="url(#p519a904646)">
     <use xlink:href="#mbbe14c8128" x="70.232727" y="373.522909" style="fill: #8c564b; stroke: #8c564b"/>
     <use xlink:href="#mbbe14c8128" x="85.544678" y="356.495818" style="fill: #8c564b; stroke: #8c564b"/>
     <use xlink:href="#mbbe14c8128" x="116.16858" y="271.924388" style="fill: #8c564b; stroke: #8c564b"/>
     <use xlink:href="#mbbe14c8128" x="167.208417" y="178.178477" style="fill: #8c564b; stroke: #8c564b"/>
     <use xlink:href="#mbbe14c8128" x="218.248253" y="152.669403" style="fill: #8c564b; stroke: #8c564b"/>
     <use xlink:href="#mbbe14c8128" x="320.327926" y="81.18153" style="fill: #8c564b; stroke: #8c564b"/>
     <use xlink:href="#mbbe14c8128" x="422.4076" y="56.221952" style="fill: #8c564b; stroke: #8c564b"/>
     <use xlink:href="#mbbe14c8128" x="524.487273" y="42.061091" style="fill: #8c564b; stroke: #8c564b"/>
    </g>
   </g>
   <g id="line2d_18">
    <path d="M 70.232727 373.522909 
L 85.544678 339.35843 
L 116.16858 237.944515 
L 167.208417 140.174734 
L 218.248253 102.456105 
L 320.327926 83.726218 
L 422.4076 52.970749 
L 524.487273 42.061091 
" clip-path="url(#p519a904646)" style="fill: none; stroke: #e377c2; stroke-width: 1.5; stroke-linecap: square"/>
    <defs>
     <path id="mc32afb5f47" d="M 0 3 
C 0.795609 3 1.55874 2.683901 2.12132 2.12132 
C 2.683901 1.55874 3 0.795609 3 0 
C 3 -0.795609 2.683901 -1.55874 2.12132 -2.12132 
C 1.55874 -2.683901 0.795609 -3 0 -3 
C -0.795609 -3 -1.55874 -2.683901 -2.12132 -2.12132 
C -2.683901 -1.55874 -3 -0.795609 -3 0 
C -3 0.795609 -2.683901 1.55874 -2.12132 2.12132 
C -1.55874 2.683901 -0.795609 3 0 3 
z
" style="stroke: #e377c2"/>
    </defs>
    <g clip-path="url(#p519a904646)">
     <use xlink:href="#mc32afb5f47" x="70.232727" y="373.522909" style="fill: #e377c2; stroke: #e377c2"/>
     <use xlink:href="#mc32afb5f47" x="85.544678" y="339.35843" style="fill: #e377c2; stroke: #e377c2"/>
     <use xlink:href="#mc32afb5f47" x="116.16858" y="237.944515" style="fill: #e377c2; stroke: #e377c2"/>
     <use xlink:href="#mc32afb5f47" x="167.208417" y="140.174734" style="fill: #e377c2; stroke: #e377c2"/>
     <use xlink:href="#mc32afb5f47" x="218.248253" y="102.456105" style="fill: #e377c2; stroke: #e377c2"/>
     <use xlink:href="#mc32afb5f47" x="320.327926" y="83.726218" style="fill: #e377c2; stroke: #e377c2"/>
     <use xlink:href="#mc32afb5f47" x="422.4076" y="52.970749" style="fill: #e377c2; stroke: #e377c2"/>
     <use xlink:href="#mc32afb5f47" x="524.487273" y="42.061091" style="fill: #e377c2; stroke: #e377c2"/>
    </g>
   </g>
   <g id="line2d_19">
    <path d="M 70.232727 373.522909 
L 85.544678 235.161708 
L 116.16858 135.169417 
L 167.208417 115.26146 
L 218.248253 84.666635 
L 320.327926 68.134503 
L 422.4076 57.933832 
L 524.487273 42.061091 
" clip-path="url(#p519a904646)" style="fill: none; stroke: #7f7f7f; stroke-width: 1.5; stroke-linecap: square"/>
    <defs>
     <path id="mae50d289bd" d="M 0 3 
C 0.795609 3 1.55874 2.683901 2.12132 2.12132 
C 2.683901 1.55874 3 0.795609 3 0 
C 3 -0.795609 2.683901 -1.55874 2.12132 -2.12132 
C 1.55874 -2.683901 0.795609 -3 0 -3 
C -0.795609 -3 -1.55874 -2.683901 -2.12132 -2.12132 
C -2.683901 -1.55874 -3 -0.795609 -3 0 
C -3 0.795609 -2.683901 1.55874 -2.12132 2.12132 
C -1.55874 2.683901 -0.795609 3 0 3 
z
" style="stroke: #7f7f7f"/>
    </defs>
    <g clip-path="url(#p519a904646)">
     <use xlink:href="#mae50d289bd" x="70.232727" y="373.522909" style="fill: #7f7f7f; stroke: #7f7f7f"/>
     <use xlink:href="#mae50d289bd" x="85.544678" y="235.161708" style="fill: #7f7f7f; stroke: #7f7f7f"/>
     <use xlink:href="#mae50d289bd" x="116.16858" y="135.169417" style="fill: #7f7f7f; stroke: #7f7f7f"/>
     <use xlink:href="#mae50d289bd" x="167.208417" y="115.26146" style="fill: #7f7f7f; stroke: #7f7f7f"/>
     <use xlink:href="#mae50d289bd" x="218.248253" y="84.666635" style="fill: #7f7f7f; stroke: #7f7f7f"/>
     <use xlink:href="#mae50d289bd" x="320.327926" y="68.134503" style="fill: #7f7f7f; stroke: #7f7f7f"/>
     <use xlink:href="#mae50d289bd" x="422.4076" y="57.933832" style="fill: #7f7f7f; stroke: #7f7f7f"/>
     <use xlink:href="#mae50d289bd" x="524.487273" y="42.061091" style="fill: #7f7f7f; stroke: #7f7f7f"/>
    </g>
   </g>
   <g id="line2d_20">
    <path d="M 70.232727 373.522909 
L 85.544678 177.782646 
L 116.16858 105.582981 
L 167.208417 77.238996 
L 218.248253 64.942905 
L 320.327926 53.169771 
L 422.4076 48.6677 
L 524.487273 42.061091 
" clip-path="url(#p519a904646)" style="fill: none; stroke: #bcbd22; stroke-width: 1.5; stroke-linecap: square"/>
    <defs>
     <path id="m40266a5edb" d="M 0 3 
C 0.795609 3 1.55874 2.683901 2.12132 2.12132 
C 2.683901 1.55874 3 0.795609 3 0 
C 3 -0.795609 2.683901 -1.55874 2.12132 -2.12132 
C 1.55874 -2.683901 0.795609 -3 0 -3 
C -0.795609 -3 -1.55874 -2.683901 -2.12132 -2.12132 
C -2.683901 -1.55874 -3 -0.795609 -3 0 
C -3 0.795609 -2.683901 1.55874 -2.12132 2.12132 
C -1.55874 2.683901 -0.795609 3 0 3 
z
" style="stroke: #bcbd22"/>
    </defs>
    <g clip-path="url(#p519a904646)">
     <use xlink:href="#m40266a5edb" x="70.232727" y="373.522909" style="fill: #bcbd22; stroke: #bcbd22"/>
     <use xlink:href="#m40266a5edb" x="85.544678" y="177.782646" style="fill: #bcbd22; stroke: #bcbd22"/>
     <use xlink:href="#m40266a5edb" x="116.16858" y="105.582981" style="fill: #bcbd22; stroke: #bcbd22"/>
     <use xlink:href="#m40266a5edb" x="167.208417" y="77.238996" style="fill: #bcbd22; stroke: #bcbd22"/>
     <use xlink:href="#m40266a5edb" x="218.248253" y="64.942905" style="fill: #bcbd22; stroke: #bcbd22"/>
     <use xlink:href="#m40266a5edb" x="320.327926" y="53.169771" style="fill: #bcbd22; stroke: #bcbd22"/>
     <use xlink:href="#m40266a5edb" x="422.4076" y="48.6677" style="fill: #bcbd22; stroke: #bcbd22"/>
     <use xlink:href="#m40266a5edb" x="524.487273" y="42.061091" style="fill: #bcbd22; stroke: #bcbd22"/>
    </g>
   </g>
   <g id="line2d_21">
    <path d="M 70.232727 370.484064 
L 85.544678 373.522909 
L 116.16858 247.407295 
L 167.208417 145.69833 
L 218.248253 124.790443 
L 320.327926 65.489231 
L 422.4076 49.459333 
L 524.487273 42.061091 
" clip-path="url(#p519a904646)" style="fill: none; stroke: #17becf; stroke-width: 1.5; stroke-linecap: square"/>
    <defs>
     <path id="m76698fb68e" d="M 0 3 
C 0.795609 3 1.55874 2.683901 2.12132 2.12132 
C 2.683901 1.55874 3 0.795609 3 0 
C 3 -0.795609 2.683901 -1.55874 2.12132 -2.12132 
C 1.55874 -2.683901 0.795609 -3 0 -3 
C -0.795609 -3 -1.55874 -2.683901 -2.12132 -2.12132 
C -2.683901 -1.55874 -3 -0.795609 -3 0 
C -3 0.795609 -2.683901 1.55874 -2.12132 2.12132 
C -1.55874 2.683901 -0.795609 3 0 3 
z
" style="stroke: #17becf"/>
    </defs>
    <g clip-path="url(#p519a904646)">
     <use xlink:href="#m76698fb68e" x="70.232727" y="370.484064" style="fill: #17becf; stroke: #17becf"/>
     <use xlink:href="#m76698fb68e" x="85.544678" y="373.522909" style="fill: #17becf; stroke: #17becf"/>
     <use xlink:href="#m76698fb68e" x="116.16858" y="247.407295" style="fill: #17becf; stroke: #17becf"/>
     <use xlink:href="#m76698fb68e" x="167.208417" y="145.69833" style="fill: #17becf; stroke: #17becf"/>
     <use xlink:href="#m76698fb68e" x="218.248253" y="124.790443" style="fill: #17becf; stroke: #17becf"/>
     <use xlink:href="#m76698fb68e" x="320.327926" y="65.489231" style="fill: #17becf; stroke: #17becf"/>
     <use xlink:href="#m76698fb68e" x="422.4076" y="49.459333" style="fill: #17becf; stroke: #17becf"/>
     <use xlink:href="#m76698fb68e" x="524.487273" y="42.061091" style="fill: #17becf; stroke: #17becf"/>
    </g>
   </g>
   <g id="line2d_22">
    <path d="M 70.232727 373.522909 
L 85.544678 367.071328 
L 116.16858 348.881041 
L 167.208417 317.508868 
L 218.248253 282.895912 
L 320.327926 209.92768 
L 422.4076 128.655883 
L 524.487273 42.061091 
" clip-path="url(#p519a904646)" style="fill: none; stroke: #1f77b4; stroke-width: 1.5; stroke-linecap: square"/>
    <g clip-path="url(#p519a904646)">
     <use xlink:href="#m603d447092" x="70.232727" y="373.522909" style="fill: #1f77b4; stroke: #1f77b4"/>
     <use xlink:href="#m603d447092" x="85.544678" y="367.071328" style="fill: #1f77b4; stroke: #1f77b4"/>
     <use xlink:href="#m603d447092" x="116.16858" y="348.881041" style="fill: #1f77b4; stroke: #1f77b4"/>
     <use xlink:href="#m603d447092" x="167.208417" y="317.508868" style="fill: #1f77b4; stroke: #1f77b4"/>
     <use xlink:href="#m603d447092" x="218.248253" y="282.895912" style="fill: #1f77b4; stroke: #1f77b4"/>
     <use xlink:href="#m603d447092" x="320.327926" y="209.92768" style="fill: #1f77b4; stroke: #1f77b4"/>
     <use xlink:href="#m603d447092" x="422.4076" y="128.655883" style="fill: #1f77b4; stroke: #1f77b4"/>
     <use xlink:href="#m603d447092" x="524.487273" y="42.061091" style="fill: #1f77b4; stroke: #1f77b4"/>
    </g>
   </g>
   <g id="line2d_23">
    <path d="M 70.232727 373.522909 
L 85.544678 362.505779 
L 116.16858 351.072441 
L 167.208417 327.289302 
L 218.248253 299.634893 
L 320.327926 234.69732 
L 422.4076 138.738944 
L 524.487273 42.061091 
" clip-path="url(#p519a904646)" style="fill: none; stroke: #ff7f0e; stroke-width: 1.5; stroke-linecap: square"/>
    <g clip-path="url(#p519a904646)">
     <use xlink:href="#me6e830f0c3" x="70.232727" y="373.522909" style="fill: #ff7f0e; stroke: #ff7f0e"/>
     <use xlink:href="#me6e830f0c3" x="85.544678" y="362.505779" style="fill: #ff7f0e; stroke: #ff7f0e"/>
     <use xlink:href="#me6e830f0c3" x="116.16858" y="351.072441" style="fill: #ff7f0e; stroke: #ff7f0e"/>
     <use xlink:href="#me6e830f0c3" x="167.208417" y="327.289302" style="fill: #ff7f0e; stroke: #ff7f0e"/>
     <use xlink:href="#me6e830f0c3" x="218.248253" y="299.634893" style="fill: #ff7f0e; stroke: #ff7f0e"/>
     <use xlink:href="#me6e830f0c3" x="320.327926" y="234.69732" style="fill: #ff7f0e; stroke: #ff7f0e"/>
     <use xlink:href="#me6e830f0c3" x="422.4076" y="138.738944" style="fill: #ff7f0e; stroke: #ff7f0e"/>
     <use xlink:href="#me6e830f0c3" x="524.487273" y="42.061091" style="fill: #ff7f0e; stroke: #ff7f0e"/>
    </g>
   </g>
   <g id="line2d_24">
    <path d="M 70.232727 373.522909 
L 85.544678 351.660554 
L 116.16858 319.627353 
L 167.208417 274.86308 
L 218.248253 235.941572 
L 320.327926 165.09138 
L 422.4076 100.915108 
L 524.487273 42.061091 
" clip-path="url(#p519a904646)" style="fill: none; stroke: #2ca02c; stroke-width: 1.5; stroke-linecap: square"/>
    <g clip-path="url(#p519a904646)">
     <use xlink:href="#m8327ee2b59" x="70.232727" y="373.522909" style="fill: #2ca02c; stroke: #2ca02c"/>
     <use xlink:href="#m8327ee2b59" x="85.544678" y="351.660554" style="fill: #2ca02c; stroke: #2ca02c"/>
     <use xlink:href="#m8327ee2b59" x="116.16858" y="319.627353" style="fill: #2ca02c; stroke: #2ca02c"/>
     <use xlink:href="#m8327ee2b59" x="167.208417" y="274.86308" style="fill: #2ca02c; stroke: #2ca02c"/>
     <use xlink:href="#m8327ee2b59" x="218.248253" y="235.941572" style="fill: #2ca02c; stroke: #2ca02c"/>
     <use xlink:href="#m8327ee2b59" x="320.327926" y="165.09138" style="fill: #2ca02c; stroke: #2ca02c"/>
     <use xlink:href="#m8327ee2b59" x="422.4076" y="100.915108" style="fill: #2ca02c; stroke: #2ca02c"/>
     <use xlink:href="#m8327ee2b59" x="524.487273" y="42.061091" style="fill: #2ca02c; stroke: #2ca02c"/>
    </g>
   </g>
   <g id="line2d_25">
    <path d="M 70.232727 373.522909 
L 85.544678 355.676871 
L 116.16858 324.676696 
L 167.208417 279.93436 
L 218.248253 241.1827 
L 320.327926 167.488138 
L 422.4076 101.210212 
L 524.487273 42.061091 
" clip-path="url(#p519a904646)" style="fill: none; stroke: #d62728; stroke-width: 1.5; stroke-linecap: square"/>
    <g clip-path="url(#p519a904646)">
     <use xlink:href="#m68e571b287" x="70.232727" y="373.522909" style="fill: #d62728; stroke: #d62728"/>
     <use xlink:href="#m68e571b287" x="85.544678" y="355.676871" style="fill: #d62728; stroke: #d62728"/>
     <use xlink:href="#m68e571b287" x="116.16858" y="324.676696" style="fill: #d62728; stroke: #d62728"/>
     <use xlink:href="#m68e571b287" x="167.208417" y="279.93436" style="fill: #d62728; stroke: #d62728"/>
     <use xlink:href="#m68e571b287" x="218.248253" y="241.1827" style="fill: #d62728; stroke: #d62728"/>
     <use xlink:href="#m68e571b287" x="320.327926" y="167.488138" style="fill: #d62728; stroke: #d62728"/>
     <use xlink:href="#m68e571b287" x="422.4076" y="101.210212" style="fill: #d62728; stroke: #d62728"/>
     <use xlink:href="#m68e571b287" x="524.487273" y="42.061091" style="fill: #d62728; stroke: #d62728"/>
    </g>
   </g>
   <g id="line2d_26">
    <path d="M 70.232727 373.522909 
L 85.544678 365.636461 
L 116.16858 349.853578 
L 167.208417 318.729483 
L 218.248253 284.103533 
L 320.327926 210.514277 
L 422.4076 126.169502 
L 524.487273 42.061091 
" clip-path="url(#p519a904646)" style="fill: none; stroke: #9467bd; stroke-width: 1.5; stroke-linecap: square"/>
    <g clip-path="url(#p519a904646)">
     <use xlink:href="#m05063644f8" x="70.232727" y="373.522909" style="fill: #9467bd; stroke: #9467bd"/>
     <use xlink:href="#m05063644f8" x="85.544678" y="365.636461" style="fill: #9467bd; stroke: #9467bd"/>
     <use xlink:href="#m05063644f8" x="116.16858" y="349.853578" style="fill: #9467bd; stroke: #9467bd"/>
     <use xlink:href="#m05063644f8" x="167.208417" y="318.729483" style="fill: #9467bd; stroke: #9467bd"/>
     <use xlink:href="#m05063644f8" x="218.248253" y="284.103533" style="fill: #9467bd; stroke: #9467bd"/>
     <use xlink:href="#m05063644f8" x="320.327926" y="210.514277" style="fill: #9467bd; stroke: #9467bd"/>
     <use xlink:href="#m05063644f8" x="422.4076" y="126.169502" style="fill: #9467bd; stroke: #9467bd"/>
     <use xlink:href="#m05063644f8" x="524.487273" y="42.061091" style="fill: #9467bd; stroke: #9467bd"/>
    </g>
   </g>
   <g id="line2d_27">
    <path d="M 70.232727 373.522909 
L 85.544678 362.632064 
L 116.16858 344.466183 
L 167.208417 321.689867 
L 218.248253 293.63946 
L 320.327926 231.215599 
L 422.4076 138.364576 
L 524.487273 42.061091 
" clip-path="url(#p519a904646)" style="fill: none; stroke: #8c564b; stroke-width: 1.5; stroke-linecap: square"/>
    <g clip-path="url(#p519a904646)">
     <use xlink:href="#mbbe14c8128" x="70.232727" y="373.522909" style="fill: #8c564b; stroke: #8c564b"/>
     <use xlink:href="#mbbe14c8128" x="85.544678" y="362.632064" style="fill: #8c564b; stroke: #8c564b"/>
     <use xlink:href="#mbbe14c8128" x="116.16858" y="344.466183" style="fill: #8c564b; stroke: #8c564b"/>
     <use xlink:href="#mbbe14c8128" x="167.208417" y="321.689867" style="fill: #8c564b; stroke: #8c564b"/>
     <use xlink:href="#mbbe14c8128" x="218.248253" y="293.63946" style="fill: #8c564b; stroke: #8c564b"/>
     <use xlink:href="#mbbe14c8128" x="320.327926" y="231.215599" style="fill: #8c564b; stroke: #8c564b"/>
     <use xlink:href="#mbbe14c8128" x="422.4076" y="138.364576" style="fill: #8c564b; stroke: #8c564b"/>
     <use xlink:href="#mbbe14c8128" x="524.487273" y="42.061091" style="fill: #8c564b; stroke: #8c564b"/>
    </g>
   </g>
   <g id="patch_3">
    <path d="M 47.52 390.096 
L 47.52 25.488 
" style="fill: none; stroke: #000000; stroke-width: 0.8; stroke-linejoin: miter; stroke-linecap: square"/>
   </g>
   <g id="patch_4">
    <path d="M 547.2 390.096 
L 547.2 25.488 
" style="fill: none; stroke: #000000; stroke-width: 0.8; stroke-linejoin: miter; stroke-linecap: square"/>
   </g>
   <g id="patch_5">
    <path d="M 47.52 390.096 
L 547.2 390.096 
" style="fill: none; stroke: #000000; stroke-width: 0.8; stroke-linejoin: miter; stroke-linecap: square"/>
   </g>
   <g id="patch_6">
    <path d="M 47.52 25.488 
L 547.2 25.488 
" style="fill: none; stroke: #000000; stroke-width: 0.8; stroke-linejoin: miter; stroke-linecap: square"/>
   </g>
   <g id="text_14">
    <!-- Normalized Median Consensus Features vs. Sample Size -->
    <g transform="translate(128.53875 19.488) scale(0.12 -0.12)">
     <defs>
      <path id="DejaVuSans-4d" d="M 628 4666 
L 1569 4666 
L 2759 1491 
L 3956 4666 
L 4897 4666 
L 4897 0 
L 4281 0 
L 4281 4097 
L 3078 897 
L 2444 897 
L 1241 4097 
L 1241 0 
L 628 0 
L 628 4666 
z
" transform="scale(0.015625)"/>
      <path id="DejaVuSans-43" d="M 4122 4306 
L 4122 3641 
Q 3803 3938 3442 4084 
Q 3081 4231 2675 4231 
Q 1875 4231 1450 3742 
Q 1025 3253 1025 2328 
Q 1025 1406 1450 917 
Q 1875 428 2675 428 
Q 3081 428 3442 575 
Q 3803 722 4122 1019 
L 4122 359 
Q 3791 134 3420 21 
Q 3050 -91 2638 -91 
Q 1578 -91 968 557 
Q 359 1206 359 2328 
Q 359 3453 968 4101 
Q 1578 4750 2638 4750 
Q 3056 4750 3426 4639 
Q 3797 4528 4122 4306 
z
" transform="scale(0.015625)"/>
      <path id="DejaVuSans-46" d="M 628 4666 
L 3309 4666 
L 3309 4134 
L 1259 4134 
L 1259 2759 
L 3109 2759 
L 3109 2228 
L 1259 2228 
L 1259 0 
L 628 0 
L 628 4666 
z
" transform="scale(0.015625)"/>
     </defs>
     <use xlink:href="#DejaVuSans-4e"/>
     <use xlink:href="#DejaVuSans-6f" x="74.804688"/>
     <use xlink:href="#DejaVuSans-72" x="135.986328"/>
     <use xlink:href="#DejaVuSans-6d" x="175.349609"/>
     <use xlink:href="#DejaVuSans-61" x="272.761719"/>
     <use xlink:href="#DejaVuSans-6c" x="334.041016"/>
     <use xlink:href="#DejaVuSans-69" x="361.824219"/>
     <use xlink:href="#DejaVuSans-7a" x="389.607422"/>
     <use xlink:href="#DejaVuSans-65" x="442.097656"/>
     <use xlink:href="#DejaVuSans-64" x="503.621094"/>
     <use xlink:href="#DejaVuSans-20" x="567.097656"/>
     <use xlink:href="#DejaVuSans-4d" x="598.884766"/>
     <use xlink:href="#DejaVuSans-65" x="685.164062"/>
     <use xlink:href="#DejaVuSans-64" x="746.6875"/>
     <use xlink:href="#DejaVuSans-69" x="810.164062"/>
     <use xlink:href="#DejaVuSans-61" x="837.947266"/>
     <use xlink:href="#DejaVuSans-6e" x="899.226562"/>
     <use xlink:href="#DejaVuSans-20" x="962.605469"/>
     <use xlink:href="#DejaVuSans-43" x="994.392578"/>
     <use xlink:href="#DejaVuSans-6f" x="1064.216797"/>
     <use xlink:href="#DejaVuSans-6e" x="1125.398438"/>
     <use xlink:href="#DejaVuSans-73" x="1188.777344"/>
     <use xlink:href="#DejaVuSans-65" x="1240.876953"/>
     <use xlink:href="#DejaVuSans-6e" x="1302.400391"/>
     <use xlink:href="#DejaVuSans-73" x="1365.779297"/>
     <use xlink:href="#DejaVuSans-75" x="1417.878906"/>
     <use xlink:href="#DejaVuSans-73" x="1481.257812"/>
     <use xlink:href="#DejaVuSans-20" x="1533.357422"/>
     <use xlink:href="#DejaVuSans-46" x="1565.144531"/>
     <use xlink:href="#DejaVuSans-65" x="1617.164062"/>
     <use xlink:href="#DejaVuSans-61" x="1678.6875"/>
     <use xlink:href="#DejaVuSans-74" x="1739.966797"/>
     <use xlink:href="#DejaVuSans-75" x="1779.175781"/>
     <use xlink:href="#DejaVuSans-72" x="1842.554688"/>
     <use xlink:href="#DejaVuSans-65" x="1881.417969"/>
     <use xlink:href="#DejaVuSans-73" x="1942.941406"/>
     <use xlink:href="#DejaVuSans-20" x="1995.041016"/>
     <use xlink:href="#DejaVuSans-76" x="2026.828125"/>
     <use xlink:href="#DejaVuSans-73" x="2086.007812"/>
     <use xlink:href="#DejaVuSans-2e" x="2138.107422"/>
     <use xlink:href="#DejaVuSans-20" x="2169.894531"/>
     <use xlink:href="#DejaVuSans-53" x="2201.681641"/>
     <use xlink:href="#DejaVuSans-61" x="2265.158203"/>
     <use xlink:href="#DejaVuSans-6d" x="2326.4375"/>
     <use xlink:href="#DejaVuSans-70" x="2423.849609"/>
     <use xlink:href="#DejaVuSans-6c" x="2487.326172"/>
     <use xlink:href="#DejaVuSans-65" x="2515.109375"/>
     <use xlink:href="#DejaVuSans-20" x="2576.632812"/>
     <use xlink:href="#DejaVuSans-53" x="2608.419922"/>
     <use xlink:href="#DejaVuSans-69" x="2671.896484"/>
     <use xlink:href="#DejaVuSans-7a" x="2699.679688"/>
     <use xlink:href="#DejaVuSans-65" x="2752.169922"/>
    </g>
   </g>
   <g id="legend_1">
    <g id="patch_7">
     <path d="M 579.184 268.338 
L 704.474625 268.338 
Q 706.474625 268.338 706.474625 266.338 
L 706.474625 32.488 
Q 706.474625 30.488 704.474625 30.488 
L 579.184 30.488 
Q 577.184 30.488 577.184 32.488 
L 577.184 266.338 
Q 577.184 268.338 579.184 268.338 
z
" style="fill: #ffffff; opacity: 0.8; stroke: #cccccc; stroke-linejoin: miter"/>
    </g>
    <g id="line2d_28">
     <path d="M 581.184 38.586437 
L 591.184 38.586437 
L 601.184 38.586437 
" style="fill: none; stroke: #1f77b4; stroke-width: 1.5; stroke-linecap: square"/>
     <g>
      <use xlink:href="#m603d447092" x="591.184" y="38.586437" style="fill: #1f77b4; stroke: #1f77b4"/>
     </g>
    </g>
    <g id="text_15">
     <!-- Entropy H0 -->
     <g transform="translate(609.184 42.086437) scale(0.1 -0.1)">
      <defs>
       <path id="DejaVuSans-45" d="M 628 4666 
L 3578 4666 
L 3578 4134 
L 1259 4134 
L 1259 2753 
L 3481 2753 
L 3481 2222 
L 1259 2222 
L 1259 531 
L 3634 531 
L 3634 0 
L 628 0 
L 628 4666 
z
" transform="scale(0.015625)"/>
       <path id="DejaVuSans-79" d="M 2059 -325 
Q 1816 -950 1584 -1140 
Q 1353 -1331 966 -1331 
L 506 -1331 
L 506 -850 
L 844 -850 
Q 1081 -850 1212 -737 
Q 1344 -625 1503 -206 
L 1606 56 
L 191 3500 
L 800 3500 
L 1894 763 
L 2988 3500 
L 3597 3500 
L 2059 -325 
z
" transform="scale(0.015625)"/>
       <path id="DejaVuSans-48" d="M 628 4666 
L 1259 4666 
L 1259 2753 
L 3553 2753 
L 3553 4666 
L 4184 4666 
L 4184 0 
L 3553 0 
L 3553 2222 
L 1259 2222 
L 1259 0 
L 628 0 
L 628 4666 
z
" transform="scale(0.015625)"/>
      </defs>
      <use xlink:href="#DejaVuSans-45"/>
      <use xlink:href="#DejaVuSans-6e" x="63.183594"/>
      <use xlink:href="#DejaVuSans-74" x="126.5625"/>
      <use xlink:href="#DejaVuSans-72" x="165.771484"/>
      <use xlink:href="#DejaVuSans-6f" x="204.634766"/>
      <use xlink:href="#DejaVuSans-70" x="265.816406"/>
      <use xlink:href="#DejaVuSans-79" x="329.292969"/>
      <use xlink:href="#DejaVuSans-20" x="388.472656"/>
      <use xlink:href="#DejaVuSans-48" x="420.259766"/>
      <use xlink:href="#DejaVuSans-30" x="495.455078"/>
     </g>
    </g>
    <g id="line2d_29">
     <path d="M 581.184 53.264563 
L 591.184 53.264563 
L 601.184 53.264563 
" style="fill: none; stroke: #ff7f0e; stroke-width: 1.5; stroke-linecap: square"/>
     <g>
      <use xlink:href="#me6e830f0c3" x="591.184" y="53.264563" style="fill: #ff7f0e; stroke: #ff7f0e"/>
     </g>
    </g>
    <g id="text_16">
     <!-- Entropy H1 -->
     <g transform="translate(609.184 56.764563) scale(0.1 -0.1)">
      <use xlink:href="#DejaVuSans-45"/>
      <use xlink:href="#DejaVuSans-6e" x="63.183594"/>
      <use xlink:href="#DejaVuSans-74" x="126.5625"/>
      <use xlink:href="#DejaVuSans-72" x="165.771484"/>
      <use xlink:href="#DejaVuSans-6f" x="204.634766"/>
      <use xlink:href="#DejaVuSans-70" x="265.816406"/>
      <use xlink:href="#DejaVuSans-79" x="329.292969"/>
      <use xlink:href="#DejaVuSans-20" x="388.472656"/>
      <use xlink:href="#DejaVuSans-48" x="420.259766"/>
      <use xlink:href="#DejaVuSans-31" x="495.455078"/>
     </g>
    </g>
    <g id="line2d_30">
     <path d="M 581.184 67.942688 
L 591.184 67.942688 
L 601.184 67.942688 
" style="fill: none; stroke: #2ca02c; stroke-width: 1.5; stroke-linecap: square"/>
     <g>
      <use xlink:href="#m8327ee2b59" x="591.184" y="67.942688" style="fill: #2ca02c; stroke: #2ca02c"/>
     </g>
    </g>
    <g id="text_17">
     <!-- NumPoints H0 -->
     <g transform="translate(609.184 71.442688) scale(0.1 -0.1)">
      <defs>
       <path id="DejaVuSans-50" d="M 1259 4147 
L 1259 2394 
L 2053 2394 
Q 2494 2394 2734 2622 
Q 2975 2850 2975 3272 
Q 2975 3691 2734 3919 
Q 2494 4147 2053 4147 
L 1259 4147 
z
M 628 4666 
L 2053 4666 
Q 2838 4666 3239 4311 
Q 3641 3956 3641 3272 
Q 3641 2581 3239 2228 
Q 2838 1875 2053 1875 
L 1259 1875 
L 1259 0 
L 628 0 
L 628 4666 
z
" transform="scale(0.015625)"/>
      </defs>
      <use xlink:href="#DejaVuSans-4e"/>
      <use xlink:href="#DejaVuSans-75" x="74.804688"/>
      <use xlink:href="#DejaVuSans-6d" x="138.183594"/>
      <use xlink:href="#DejaVuSans-50" x="235.595703"/>
      <use xlink:href="#DejaVuSans-6f" x="292.273438"/>
      <use xlink:href="#DejaVuSans-69" x="353.455078"/>
      <use xlink:href="#DejaVuSans-6e" x="381.238281"/>
      <use xlink:href="#DejaVuSans-74" x="444.617188"/>
      <use xlink:href="#DejaVuSans-73" x="483.826172"/>
      <use xlink:href="#DejaVuSans-20" x="535.925781"/>
      <use xlink:href="#DejaVuSans-48" x="567.712891"/>
      <use xlink:href="#DejaVuSans-30" x="642.908203"/>
     </g>
    </g>
    <g id="line2d_31">
     <path d="M 581.184 82.620812 
L 591.184 82.620812 
L 601.184 82.620812 
" style="fill: none; stroke: #d62728; stroke-width: 1.5; stroke-linecap: square"/>
     <g>
      <use xlink:href="#m68e571b287" x="591.184" y="82.620812" style="fill: #d62728; stroke: #d62728"/>
     </g>
    </g>
    <g id="text_18">
     <!-- NumPoints H1 -->
     <g transform="translate(609.184 86.120812) scale(0.1 -0.1)">
      <use xlink:href="#DejaVuSans-4e"/>
      <use xlink:href="#DejaVuSans-75" x="74.804688"/>
      <use xlink:href="#DejaVuSans-6d" x="138.183594"/>
      <use xlink:href="#DejaVuSans-50" x="235.595703"/>
      <use xlink:href="#DejaVuSans-6f" x="292.273438"/>
      <use xlink:href="#DejaVuSans-69" x="353.455078"/>
      <use xlink:href="#DejaVuSans-6e" x="381.238281"/>
      <use xlink:href="#DejaVuSans-74" x="444.617188"/>
      <use xlink:href="#DejaVuSans-73" x="483.826172"/>
      <use xlink:href="#DejaVuSans-20" x="535.925781"/>
      <use xlink:href="#DejaVuSans-48" x="567.712891"/>
      <use xlink:href="#DejaVuSans-31" x="642.908203"/>
     </g>
    </g>
    <g id="line2d_32">
     <path d="M 581.184 97.298937 
L 591.184 97.298937 
L 601.184 97.298937 
" style="fill: none; stroke: #9467bd; stroke-width: 1.5; stroke-linecap: square"/>
     <g>
      <use xlink:href="#m05063644f8" x="591.184" y="97.298937" style="fill: #9467bd; stroke: #9467bd"/>
     </g>
    </g>
    <g id="text_19">
     <!-- Bottleneck H0 -->
     <g transform="translate(609.184 100.798937) scale(0.1 -0.1)">
      <defs>
       <path id="DejaVuSans-42" d="M 1259 2228 
L 1259 519 
L 2272 519 
Q 2781 519 3026 730 
Q 3272 941 3272 1375 
Q 3272 1813 3026 2020 
Q 2781 2228 2272 2228 
L 1259 2228 
z
M 1259 4147 
L 1259 2741 
L 2194 2741 
Q 2656 2741 2882 2914 
Q 3109 3088 3109 3444 
Q 3109 3797 2882 3972 
Q 2656 4147 2194 4147 
L 1259 4147 
z
M 628 4666 
L 2241 4666 
Q 2963 4666 3353 4366 
Q 3744 4066 3744 3513 
Q 3744 3084 3544 2831 
Q 3344 2578 2956 2516 
Q 3422 2416 3680 2098 
Q 3938 1781 3938 1306 
Q 3938 681 3513 340 
Q 3088 0 2303 0 
L 628 0 
L 628 4666 
z
" transform="scale(0.015625)"/>
       <path id="DejaVuSans-63" d="M 3122 3366 
L 3122 2828 
Q 2878 2963 2633 3030 
Q 2388 3097 2138 3097 
Q 1578 3097 1268 2742 
Q 959 2388 959 1747 
Q 959 1106 1268 751 
Q 1578 397 2138 397 
Q 2388 397 2633 464 
Q 2878 531 3122 666 
L 3122 134 
Q 2881 22 2623 -34 
Q 2366 -91 2075 -91 
Q 1284 -91 818 406 
Q 353 903 353 1747 
Q 353 2603 823 3093 
Q 1294 3584 2113 3584 
Q 2378 3584 2631 3529 
Q 2884 3475 3122 3366 
z
" transform="scale(0.015625)"/>
       <path id="DejaVuSans-6b" d="M 581 4863 
L 1159 4863 
L 1159 1991 
L 2875 3500 
L 3609 3500 
L 1753 1863 
L 3688 0 
L 2938 0 
L 1159 1709 
L 1159 0 
L 581 0 
L 581 4863 
z
" transform="scale(0.015625)"/>
      </defs>
      <use xlink:href="#DejaVuSans-42"/>
      <use xlink:href="#DejaVuSans-6f" x="68.603516"/>
      <use xlink:href="#DejaVuSans-74" x="129.785156"/>
      <use xlink:href="#DejaVuSans-74" x="168.994141"/>
      <use xlink:href="#DejaVuSans-6c" x="208.203125"/>
      <use xlink:href="#DejaVuSans-65" x="235.986328"/>
      <use xlink:href="#DejaVuSans-6e" x="297.509766"/>
      <use xlink:href="#DejaVuSans-65" x="360.888672"/>
      <use xlink:href="#DejaVuSans-63" x="422.412109"/>
      <use xlink:href="#DejaVuSans-6b" x="477.392578"/>
      <use xlink:href="#DejaVuSans-20" x="535.302734"/>
      <use xlink:href="#DejaVuSans-48" x="567.089844"/>
      <use xlink:href="#DejaVuSans-30" x="642.285156"/>
     </g>
    </g>
    <g id="line2d_33">
     <path d="M 581.184 111.977062 
L 591.184 111.977062 
L 601.184 111.977062 
" style="fill: none; stroke: #8c564b; stroke-width: 1.5; stroke-linecap: square"/>
     <g>
      <use xlink:href="#mbbe14c8128" x="591.184" y="111.977062" style="fill: #8c564b; stroke: #8c564b"/>
     </g>
    </g>
    <g id="text_20">
     <!-- Bottleneck H1 -->
     <g transform="translate(609.184 115.477062) scale(0.1 -0.1)">
      <use xlink:href="#DejaVuSans-42"/>
      <use xlink:href="#DejaVuSans-6f" x="68.603516"/>
      <use xlink:href="#DejaVuSans-74" x="129.785156"/>
      <use xlink:href="#DejaVuSans-74" x="168.994141"/>
      <use xlink:href="#DejaVuSans-6c" x="208.203125"/>
      <use xlink:href="#DejaVuSans-65" x="235.986328"/>
      <use xlink:href="#DejaVuSans-6e" x="297.509766"/>
      <use xlink:href="#DejaVuSans-65" x="360.888672"/>
      <use xlink:href="#DejaVuSans-63" x="422.412109"/>
      <use xlink:href="#DejaVuSans-6b" x="477.392578"/>
      <use xlink:href="#DejaVuSans-20" x="535.302734"/>
      <use xlink:href="#DejaVuSans-48" x="567.089844"/>
      <use xlink:href="#DejaVuSans-31" x="642.285156"/>
     </g>
    </g>
    <g id="line2d_34">
     <path d="M 581.184 126.655188 
L 591.184 126.655188 
L 601.184 126.655188 
" style="fill: none; stroke: #e377c2; stroke-width: 1.5; stroke-linecap: square"/>
     <g>
      <use xlink:href="#mc32afb5f47" x="591.184" y="126.655188" style="fill: #e377c2; stroke: #e377c2"/>
     </g>
    </g>
    <g id="text_21">
     <!-- Wasserstein H0 -->
     <g transform="translate(609.184 130.155188) scale(0.1 -0.1)">
      <defs>
       <path id="DejaVuSans-57" d="M 213 4666 
L 850 4666 
L 1831 722 
L 2809 4666 
L 3519 4666 
L 4500 722 
L 5478 4666 
L 6119 4666 
L 4947 0 
L 4153 0 
L 3169 4050 
L 2175 0 
L 1381 0 
L 213 4666 
z
" transform="scale(0.015625)"/>
      </defs>
      <use xlink:href="#DejaVuSans-57"/>
      <use xlink:href="#DejaVuSans-61" x="92.501953"/>
      <use xlink:href="#DejaVuSans-73" x="153.78125"/>
      <use xlink:href="#DejaVuSans-73" x="205.880859"/>
      <use xlink:href="#DejaVuSans-65" x="257.980469"/>
      <use xlink:href="#DejaVuSans-72" x="319.503906"/>
      <use xlink:href="#DejaVuSans-73" x="360.617188"/>
      <use xlink:href="#DejaVuSans-74" x="412.716797"/>
      <use xlink:href="#DejaVuSans-65" x="451.925781"/>
      <use xlink:href="#DejaVuSans-69" x="513.449219"/>
      <use xlink:href="#DejaVuSans-6e" x="541.232422"/>
      <use xlink:href="#DejaVuSans-20" x="604.611328"/>
      <use xlink:href="#DejaVuSans-48" x="636.398438"/>
      <use xlink:href="#DejaVuSans-30" x="711.59375"/>
     </g>
    </g>
    <g id="line2d_35">
     <path d="M 581.184 141.333312 
L 591.184 141.333312 
L 601.184 141.333312 
" style="fill: none; stroke: #7f7f7f; stroke-width: 1.5; stroke-linecap: square"/>
     <g>
      <use xlink:href="#mae50d289bd" x="591.184" y="141.333312" style="fill: #7f7f7f; stroke: #7f7f7f"/>
     </g>
    </g>
    <g id="text_22">
     <!-- Wasserstein H1 -->
     <g transform="translate(609.184 144.833312) scale(0.1 -0.1)">
      <use xlink:href="#DejaVuSans-57"/>
      <use xlink:href="#DejaVuSans-61" x="92.501953"/>
      <use xlink:href="#DejaVuSans-73" x="153.78125"/>
      <use xlink:href="#DejaVuSans-73" x="205.880859"/>
      <use xlink:href="#DejaVuSans-65" x="257.980469"/>
      <use xlink:href="#DejaVuSans-72" x="319.503906"/>
      <use xlink:href="#DejaVuSans-73" x="360.617188"/>
      <use xlink:href="#DejaVuSans-74" x="412.716797"/>
      <use xlink:href="#DejaVuSans-65" x="451.925781"/>
      <use xlink:href="#DejaVuSans-69" x="513.449219"/>
      <use xlink:href="#DejaVuSans-6e" x="541.232422"/>
      <use xlink:href="#DejaVuSans-20" x="604.611328"/>
      <use xlink:href="#DejaVuSans-48" x="636.398438"/>
      <use xlink:href="#DejaVuSans-31" x="711.59375"/>
     </g>
    </g>
    <g id="line2d_36">
     <path d="M 581.184 156.011437 
L 591.184 156.011437 
L 601.184 156.011437 
" style="fill: none; stroke: #bcbd22; stroke-width: 1.5; stroke-linecap: square"/>
     <g>
      <use xlink:href="#m40266a5edb" x="591.184" y="156.011437" style="fill: #bcbd22; stroke: #bcbd22"/>
     </g>
    </g>
    <g id="text_23">
     <!-- Landscape H0 -->
     <g transform="translate(609.184 159.511437) scale(0.1 -0.1)">
      <defs>
       <path id="DejaVuSans-4c" d="M 628 4666 
L 1259 4666 
L 1259 531 
L 3531 531 
L 3531 0 
L 628 0 
L 628 4666 
z
" transform="scale(0.015625)"/>
      </defs>
      <use xlink:href="#DejaVuSans-4c"/>
      <use xlink:href="#DejaVuSans-61" x="55.712891"/>
      <use xlink:href="#DejaVuSans-6e" x="116.992188"/>
      <use xlink:href="#DejaVuSans-64" x="180.371094"/>
      <use xlink:href="#DejaVuSans-73" x="243.847656"/>
      <use xlink:href="#DejaVuSans-63" x="295.947266"/>
      <use xlink:href="#DejaVuSans-61" x="350.927734"/>
      <use xlink:href="#DejaVuSans-70" x="412.207031"/>
      <use xlink:href="#DejaVuSans-65" x="475.683594"/>
      <use xlink:href="#DejaVuSans-20" x="537.207031"/>
      <use xlink:href="#DejaVuSans-48" x="568.994141"/>
      <use xlink:href="#DejaVuSans-30" x="644.189453"/>
     </g>
    </g>
    <g id="line2d_37">
     <path d="M 581.184 170.689562 
L 591.184 170.689562 
L 601.184 170.689562 
" style="fill: none; stroke: #17becf; stroke-width: 1.5; stroke-linecap: square"/>
     <g>
      <use xlink:href="#m76698fb68e" x="591.184" y="170.689562" style="fill: #17becf; stroke: #17becf"/>
     </g>
    </g>
    <g id="text_24">
     <!-- Landscape H1 -->
     <g transform="translate(609.184 174.189562) scale(0.1 -0.1)">
      <use xlink:href="#DejaVuSans-4c"/>
      <use xlink:href="#DejaVuSans-61" x="55.712891"/>
      <use xlink:href="#DejaVuSans-6e" x="116.992188"/>
      <use xlink:href="#DejaVuSans-64" x="180.371094"/>
      <use xlink:href="#DejaVuSans-73" x="243.847656"/>
      <use xlink:href="#DejaVuSans-63" x="295.947266"/>
      <use xlink:href="#DejaVuSans-61" x="350.927734"/>
      <use xlink:href="#DejaVuSans-70" x="412.207031"/>
      <use xlink:href="#DejaVuSans-65" x="475.683594"/>
      <use xlink:href="#DejaVuSans-20" x="537.207031"/>
      <use xlink:href="#DejaVuSans-48" x="568.994141"/>
      <use xlink:href="#DejaVuSans-31" x="644.189453"/>
     </g>
    </g>
    <g id="line2d_38">
     <path d="M 581.184 185.367687 
L 591.184 185.367687 
L 601.184 185.367687 
" style="fill: none; stroke: #1f77b4; stroke-width: 1.5; stroke-linecap: square"/>
     <g>
      <use xlink:href="#m603d447092" x="591.184" y="185.367687" style="fill: #1f77b4; stroke: #1f77b4"/>
     </g>
    </g>
    <g id="text_25">
     <!-- PersistenceImg H0 -->
     <g transform="translate(609.184 188.867687) scale(0.1 -0.1)">
      <defs>
       <path id="DejaVuSans-49" d="M 628 4666 
L 1259 4666 
L 1259 0 
L 628 0 
L 628 4666 
z
" transform="scale(0.015625)"/>
       <path id="DejaVuSans-67" d="M 2906 1791 
Q 2906 2416 2648 2759 
Q 2391 3103 1925 3103 
Q 1463 3103 1205 2759 
Q 947 2416 947 1791 
Q 947 1169 1205 825 
Q 1463 481 1925 481 
Q 2391 481 2648 825 
Q 2906 1169 2906 1791 
z
M 3481 434 
Q 3481 -459 3084 -895 
Q 2688 -1331 1869 -1331 
Q 1566 -1331 1297 -1286 
Q 1028 -1241 775 -1147 
L 775 -588 
Q 1028 -725 1275 -790 
Q 1522 -856 1778 -856 
Q 2344 -856 2625 -561 
Q 2906 -266 2906 331 
L 2906 616 
Q 2728 306 2450 153 
Q 2172 0 1784 0 
Q 1141 0 747 490 
Q 353 981 353 1791 
Q 353 2603 747 3093 
Q 1141 3584 1784 3584 
Q 2172 3584 2450 3431 
Q 2728 3278 2906 2969 
L 2906 3500 
L 3481 3500 
L 3481 434 
z
" transform="scale(0.015625)"/>
      </defs>
      <use xlink:href="#DejaVuSans-50"/>
      <use xlink:href="#DejaVuSans-65" x="56.677734"/>
      <use xlink:href="#DejaVuSans-72" x="118.201172"/>
      <use xlink:href="#DejaVuSans-73" x="159.314453"/>
      <use xlink:href="#DejaVuSans-69" x="211.414062"/>
      <use xlink:href="#DejaVuSans-73" x="239.197266"/>
      <use xlink:href="#DejaVuSans-74" x="291.296875"/>
      <use xlink:href="#DejaVuSans-65" x="330.505859"/>
      <use xlink:href="#DejaVuSans-6e" x="392.029297"/>
      <use xlink:href="#DejaVuSans-63" x="455.408203"/>
      <use xlink:href="#DejaVuSans-65" x="510.388672"/>
      <use xlink:href="#DejaVuSans-49" x="571.912109"/>
      <use xlink:href="#DejaVuSans-6d" x="601.404297"/>
      <use xlink:href="#DejaVuSans-67" x="698.816406"/>
      <use xlink:href="#DejaVuSans-20" x="762.292969"/>
      <use xlink:href="#DejaVuSans-48" x="794.080078"/>
      <use xlink:href="#DejaVuSans-30" x="869.275391"/>
     </g>
    </g>
    <g id="line2d_39">
     <path d="M 581.184 200.045812 
L 591.184 200.045812 
L 601.184 200.045812 
" style="fill: none; stroke: #ff7f0e; stroke-width: 1.5; stroke-linecap: square"/>
     <g>
      <use xlink:href="#me6e830f0c3" x="591.184" y="200.045812" style="fill: #ff7f0e; stroke: #ff7f0e"/>
     </g>
    </g>
    <g id="text_26">
     <!-- PersistenceImg H1 -->
     <g transform="translate(609.184 203.545812) scale(0.1 -0.1)">
      <use xlink:href="#DejaVuSans-50"/>
      <use xlink:href="#DejaVuSans-65" x="56.677734"/>
      <use xlink:href="#DejaVuSans-72" x="118.201172"/>
      <use xlink:href="#DejaVuSans-73" x="159.314453"/>
      <use xlink:href="#DejaVuSans-69" x="211.414062"/>
      <use xlink:href="#DejaVuSans-73" x="239.197266"/>
      <use xlink:href="#DejaVuSans-74" x="291.296875"/>
      <use xlink:href="#DejaVuSans-65" x="330.505859"/>
      <use xlink:href="#DejaVuSans-6e" x="392.029297"/>
      <use xlink:href="#DejaVuSans-63" x="455.408203"/>
      <use xlink:href="#DejaVuSans-65" x="510.388672"/>
      <use xlink:href="#DejaVuSans-49" x="571.912109"/>
      <use xlink:href="#DejaVuSans-6d" x="601.404297"/>
      <use xlink:href="#DejaVuSans-67" x="698.816406"/>
      <use xlink:href="#DejaVuSans-20" x="762.292969"/>
      <use xlink:href="#DejaVuSans-48" x="794.080078"/>
      <use xlink:href="#DejaVuSans-31" x="869.275391"/>
     </g>
    </g>
    <g id="line2d_40">
     <path d="M 581.184 214.723937 
L 591.184 214.723937 
L 601.184 214.723937 
" style="fill: none; stroke: #2ca02c; stroke-width: 1.5; stroke-linecap: square"/>
     <g>
      <use xlink:href="#m8327ee2b59" x="591.184" y="214.723937" style="fill: #2ca02c; stroke: #2ca02c"/>
     </g>
    </g>
    <g id="text_27">
     <!-- Betti H0 -->
     <g transform="translate(609.184 218.223937) scale(0.1 -0.1)">
      <use xlink:href="#DejaVuSans-42"/>
      <use xlink:href="#DejaVuSans-65" x="68.603516"/>
      <use xlink:href="#DejaVuSans-74" x="130.126953"/>
      <use xlink:href="#DejaVuSans-74" x="169.335938"/>
      <use xlink:href="#DejaVuSans-69" x="208.544922"/>
      <use xlink:href="#DejaVuSans-20" x="236.328125"/>
      <use xlink:href="#DejaVuSans-48" x="268.115234"/>
      <use xlink:href="#DejaVuSans-30" x="343.310547"/>
     </g>
    </g>
    <g id="line2d_41">
     <path d="M 581.184 229.402062 
L 591.184 229.402062 
L 601.184 229.402062 
" style="fill: none; stroke: #d62728; stroke-width: 1.5; stroke-linecap: square"/>
     <g>
      <use xlink:href="#m68e571b287" x="591.184" y="229.402062" style="fill: #d62728; stroke: #d62728"/>
     </g>
    </g>
    <g id="text_28">
     <!-- Betti H1 -->
     <g transform="translate(609.184 232.902062) scale(0.1 -0.1)">
      <use xlink:href="#DejaVuSans-42"/>
      <use xlink:href="#DejaVuSans-65" x="68.603516"/>
      <use xlink:href="#DejaVuSans-74" x="130.126953"/>
      <use xlink:href="#DejaVuSans-74" x="169.335938"/>
      <use xlink:href="#DejaVuSans-69" x="208.544922"/>
      <use xlink:href="#DejaVuSans-20" x="236.328125"/>
      <use xlink:href="#DejaVuSans-48" x="268.115234"/>
      <use xlink:href="#DejaVuSans-31" x="343.310547"/>
     </g>
    </g>
    <g id="line2d_42">
     <path d="M 581.184 244.080187 
L 591.184 244.080187 
L 601.184 244.080187 
" style="fill: none; stroke: #9467bd; stroke-width: 1.5; stroke-linecap: square"/>
     <g>
      <use xlink:href="#m05063644f8" x="591.184" y="244.080187" style="fill: #9467bd; stroke: #9467bd"/>
     </g>
    </g>
    <g id="text_29">
     <!-- Heat H0 -->
     <g transform="translate(609.184 247.580187) scale(0.1 -0.1)">
      <use xlink:href="#DejaVuSans-48"/>
      <use xlink:href="#DejaVuSans-65" x="75.195312"/>
      <use xlink:href="#DejaVuSans-61" x="136.71875"/>
      <use xlink:href="#DejaVuSans-74" x="197.998047"/>
      <use xlink:href="#DejaVuSans-20" x="237.207031"/>
      <use xlink:href="#DejaVuSans-48" x="268.994141"/>
      <use xlink:href="#DejaVuSans-30" x="344.189453"/>
     </g>
    </g>
    <g id="line2d_43">
     <path d="M 581.184 258.758312 
L 591.184 258.758312 
L 601.184 258.758312 
" style="fill: none; stroke: #8c564b; stroke-width: 1.5; stroke-linecap: square"/>
     <g>
      <use xlink:href="#mbbe14c8128" x="591.184" y="258.758312" style="fill: #8c564b; stroke: #8c564b"/>
     </g>
    </g>
    <g id="text_30">
     <!-- Heat H1 -->
     <g transform="translate(609.184 262.258312) scale(0.1 -0.1)">
      <use xlink:href="#DejaVuSans-48"/>
      <use xlink:href="#DejaVuSans-65" x="75.195312"/>
      <use xlink:href="#DejaVuSans-61" x="136.71875"/>
      <use xlink:href="#DejaVuSans-74" x="197.998047"/>
      <use xlink:href="#DejaVuSans-20" x="237.207031"/>
      <use xlink:href="#DejaVuSans-48" x="268.994141"/>
      <use xlink:href="#DejaVuSans-31" x="344.189453"/>
     </g>
    </g>
   </g>
  </g>
 </g>
 <defs>
  <clipPath id="p519a904646">
   <rect x="47.52" y="25.488" width="499.68" height="364.608"/>
  </clipPath>
 </defs>
</svg>
